<svg width="616" height="465" viewBox="0 0 616 465" fill="none" xmlns="http://www.w3.org/2000/svg">
<g filter="url(#filter0_d_73_28)">
<path d="M6.28565 0.285656C6.12242 0.408076 6 33.2982 6 73.3295V146.088H65.2104L63.6597 144.129C61.4154 141.354 60.8849 140.212 60.0688 136.131C59.4159 132.948 59.375 132.091 59.7831 128.99C60.3952 124.705 61.9867 121.318 64.7615 118.421C68.8422 114.136 72.678 112.626 79.3703 112.626C84.3895 112.626 86.5523 113.198 89.9392 115.36C92.4284 116.952 93.6934 118.176 95.5297 120.992C99.2023 126.541 99.5696 134.866 96.4274 141.15C95.6521 142.619 94.6728 144.211 94.1831 144.619C93.6934 145.068 93.3261 145.557 93.3261 145.761C93.3261 145.924 106.343 146.088 122.258 146.088C146.987 146.088 151.231 146.006 151.68 145.516C152.047 145.068 152.128 137.641 152.128 114.789C152.128 92.3454 152.251 84.3065 152.618 83.2455C153.026 82.0621 153.393 81.7765 155.067 81.2868C157.597 80.5931 158.454 80.7971 160.657 82.7966C161.677 83.7352 163.799 85.1226 165.431 85.9387C168.165 87.3262 168.533 87.4078 171.144 87.2445C176.572 86.8365 181.346 83.4903 183.917 78.1447C185.304 75.2882 185.304 70.7995 183.958 68.0246C182.815 65.6987 180.652 63.0054 178.857 61.7404C178.163 61.2507 177.388 60.6794 177.184 60.4754C176.939 60.2714 175.715 59.7817 174.409 59.3736C169.879 57.9454 165.595 59.1288 161.269 62.883C159.188 64.6785 158.78 64.8825 156.984 64.8825C154.006 64.8825 153.026 64.352 152.496 62.5157C152.21 61.4548 152.128 50.9675 152.169 30.9722C152.251 14.4864 152.128 0.775336 151.965 0.489689C151.68 0.12243 136.663 9.96275e-06 79.0846 9.96275e-06C39.1758 9.96275e-06 6.40807 0.12243 6.28565 0.285656Z" fill="url(#paint0_linear_73_28)"/>
<path d="M157.229 0.652909C157.107 1.02017 156.984 13.2214 156.984 27.8301C156.984 53.9872 156.984 54.3544 157.801 54.5585C158.78 54.8033 158.943 56.7212 158.005 56.7212C157.637 56.7212 157.393 57.0885 157.393 57.6189V58.4759L158.331 57.6598C158.821 57.1701 160.412 56.1907 161.881 55.4562C164.411 54.1504 164.738 54.0688 169.92 53.9464C174.246 53.8239 175.715 53.9464 177.469 54.5176C182.856 56.3131 187.345 60.7611 189.222 66.2699C190.201 69.208 190.364 76.2676 189.467 79.1648C188.324 82.919 184.896 87.6526 182.203 89.2033C177.102 92.1005 173.96 92.8759 169.063 92.4678C166.044 92.2229 161.555 90.9987 160.535 90.1826C158.249 88.3463 157.433 87.7342 157.229 87.7342C157.107 87.7342 157.025 100.833 157.066 116.789L157.188 145.884L220.398 146.292L221.336 147.679C221.949 148.577 222.275 149.679 222.275 150.78C222.275 152.29 221.989 152.821 220.439 154.575C218.358 156.861 216.317 160.941 215.909 163.43C215.746 164.614 215.95 165.96 216.521 167.878C217.623 171.429 217.95 172 220.316 174.53C223.091 177.427 227.539 179.345 230.844 179.019C235.904 178.57 241.046 174.897 243.168 170.286C244.147 168.123 244.311 167.185 244.311 164.328C244.311 161.186 244.229 160.778 242.882 158.534C242.107 157.228 240.801 155.473 240.026 154.616C238.72 153.147 238.598 152.821 238.598 150.413C238.598 148.046 238.72 147.679 239.659 146.945C240.72 146.088 241.005 146.088 271.651 146.088C295.931 146.088 302.623 145.965 302.909 145.557C303.113 145.312 303.195 132.213 303.072 115.891C302.909 92.3046 302.786 86.8773 302.378 87.6118C302.093 88.1015 300.501 89.2033 298.91 90.101C293.115 93.2839 285.28 93.3655 279.486 90.3458C277.16 89.1216 272.834 84.7553 271.855 82.6742C270.304 79.2056 269.937 77.859 269.733 74.4721C269.203 65.9435 272.998 59.1288 280.22 55.5786L283.24 54.0688H289.606C296.257 54.0688 297.033 54.232 299.767 56.3539C300.297 56.8028 301.154 57.1293 301.685 57.1293C302.378 57.1293 302.664 57.4149 302.786 58.231C302.868 58.884 302.99 46.0299 303.031 29.6664L303.072 3.2621e-06H230.273C164.289 3.2621e-06 157.474 0.0408099 157.229 0.652909Z" fill="url(#paint1_linear_73_28)"/>
<path d="M308.785 0.489679C308.785 0.775326 308.785 13.9967 308.785 29.8296C308.826 60.3938 308.703 62.1485 306.908 63.944C306.133 64.7193 305.52 64.8825 303.603 64.8825C301.073 64.8825 300.624 64.6785 296.869 61.5772C289.524 55.497 278.221 59.9857 275.283 70.1058C274.467 72.9214 274.548 74.2272 275.854 77.7366C276.956 80.6747 280.628 84.7961 282.995 85.7755C283.607 86.0203 284.709 86.4692 285.484 86.8365C288.871 88.3055 294.544 86.714 298.991 83.0415C301.032 81.3684 301.44 81.2052 303.399 81.2052C305.357 81.2052 305.765 81.3684 306.949 82.5518C307.928 83.5311 308.377 84.4289 308.581 85.7347C308.703 86.714 308.785 100.711 308.703 116.829L308.581 146.088H337.186C369.546 146.088 367.343 146.332 365.139 142.864C363.67 140.538 362.772 137.967 362.201 134.213C361.262 128.01 363.874 120.992 368.73 116.87C372.566 113.565 376.524 112.463 383.257 112.708C387.583 112.871 387.95 112.953 390.643 114.422C398.192 118.543 401.538 125.113 400.804 134.458C400.477 138.294 399.008 141.844 396.723 144.415L395.213 146.088H424.553C446.834 146.088 454.016 145.965 454.383 145.598C454.75 145.231 454.873 137.641 454.873 114.014V82.8782L455.934 82.0621C457.158 81.0827 460.055 80.9195 461.524 81.6948C462.014 81.9397 463.238 82.8782 464.258 83.776C467.033 86.2244 469.196 87.0405 473.072 87.0813C476.215 87.1221 476.623 86.9997 479.561 85.4898C481.397 84.5513 483.029 83.3679 483.56 82.6334C484.009 81.9805 484.539 81.3276 484.661 81.2052C485.927 80.0626 487.518 75.4922 487.518 72.8806C487.518 71.0443 486.416 67.4941 485.274 65.7394C484.335 64.2296 482.499 62.4749 480.377 60.9651C475.358 57.5373 468.706 58.3126 463.646 62.9646C460.708 65.6986 458.137 65.9435 455.607 63.7399C454.913 63.1686 454.873 61.1691 454.873 33.0125C454.873 6.8147 454.791 2.81566 454.261 2.28517C453.934 1.95872 453.648 1.42823 453.648 1.10178C453.648 0.775326 453.077 0.408066 452.383 0.24484C451.69 0.12242 419.085 0 379.952 0C323.312 0 308.785 0.12242 308.785 0.489679Z" fill="url(#paint2_linear_73_28)"/>
<path d="M459.892 0.489695C459.525 1.06099 459.525 57.4149 459.851 57.7822C459.974 57.9046 460.871 57.4557 461.851 56.762C462.83 56.1091 464.829 55.1706 466.299 54.6809C468.624 53.9055 469.604 53.8239 474.256 53.9464C479.112 54.1096 479.765 54.232 481.927 55.293C484.662 56.5988 488.375 59.8225 489.803 62.1077C491.884 65.413 492.415 67.5758 492.415 73.0439C492.415 79.8586 491.395 82.5518 487.028 87.1629C483.274 91.1212 476.5 93.1615 470.094 92.223C465.931 91.6109 465.156 91.366 462.259 89.4073L459.77 87.775L459.729 90.7131C459.729 93.9368 459.729 137.314 459.77 142.701V146.088H489.15C505.31 146.088 518.531 145.965 518.531 145.802C518.531 145.639 518.082 145.068 517.552 144.496C516.246 143.068 514.899 140.62 514.124 138.13C513.185 135.152 513.226 128.174 514.205 125.276C515.879 120.38 519.429 116.462 524.244 114.136C526.856 112.871 527.019 112.83 532.813 112.83C538.649 112.83 538.771 112.83 541.464 114.177C543.423 115.115 544.892 116.299 546.769 118.298C550.809 122.665 552.196 126.256 552.196 132.213C552.156 136.58 551.258 139.599 548.891 143.109C547.912 144.578 547.096 145.843 547.096 145.924C547.096 146.292 605.408 146.047 605.612 145.72C605.776 145.476 605.98 16.9348 605.857 0.693729C605.857 0.0408227 602.103 1.61883e-05 533.058 1.61883e-05C475.235 1.61883e-05 460.178 0.122436 459.892 0.489695Z" fill="url(#paint3_linear_73_28)"/>
<path d="M75.7793 118.176C71.8619 119.237 68.3525 122.216 66.1489 126.256C65.1696 128.01 65.0064 128.826 65.0064 131.601C65.0064 133.927 65.1696 135.274 65.7001 136.253C66.0673 137.029 66.3938 137.845 66.3938 138.09C66.3938 138.334 67.2915 139.599 68.3933 140.864C70.6377 143.517 71.0865 144.782 70.6785 147.72C70.3928 149.842 70.1072 150.25 68.4341 150.821C67.8628 150.984 53.6621 151.27 36.809 151.393L6.20403 151.597L6 297.072H62.2315L62.5171 295.93C62.6804 295.113 62.4355 294.256 61.7418 292.951C60.5584 290.829 59.4567 286.381 59.4567 283.647C59.4567 282.586 59.7423 280.668 60.0688 279.403C60.3952 278.097 60.6809 276.791 60.6809 276.506C60.6809 275.73 63.3333 271.405 64.6799 270.017C66.4754 268.14 69.9848 265.977 72.678 265.161C74.7183 264.508 76.0649 264.386 80.064 264.508C84.7976 264.672 85.0832 264.712 88.1437 266.222C95.6113 269.936 99.692 278.219 98.3045 287.034C98.0597 288.748 97.6516 290.461 97.4476 290.829C97.2844 291.237 96.6723 292.379 96.1826 293.4C95.6521 294.42 94.8768 295.644 94.4279 296.134L93.6118 297.072H122.666C146.66 297.072 151.761 296.991 151.924 296.501C152.251 295.685 152.332 238.719 152.006 238.719C151.843 238.719 151.598 238.882 151.476 239.127C150.904 240.065 146.783 242.391 144.579 243.003C141.274 243.983 134.051 243.656 131.031 242.473C126.42 240.596 123.156 237.454 120.789 232.598C119.32 229.578 119.279 229.456 119.279 224.436C119.279 220.07 119.442 218.968 120.218 216.928C122.176 212.031 125.563 208.481 130.46 206.237C132.827 205.176 133.643 205.053 137.887 204.931C143.437 204.768 145.518 205.257 149.435 207.746C150.782 208.603 151.924 209.256 151.965 209.175C152.292 208.848 152.169 151.637 151.843 151.515C151.639 151.433 137.601 151.352 120.667 151.27C96.7539 151.229 89.6535 151.066 88.9598 150.658C87.45 149.801 86.6747 145.435 87.654 143.558C87.8989 143.068 88.6742 142.089 89.3679 141.313C91.1226 139.395 92.3876 137.029 93.0813 134.458C94.3463 129.561 91.8571 124.134 86.4706 120.012C83.6958 117.931 79.3703 117.156 75.7793 118.176Z" fill="url(#paint4_linear_73_28)"/>
<path d="M378.279 118.135C375.545 118.91 373.504 120.175 371.301 122.583C367.22 127.031 366.241 132.54 368.689 137.355C369.383 138.742 370.689 140.783 371.627 141.844C372.525 142.946 373.464 144.047 373.668 144.333C374.157 144.945 374.198 145.884 373.708 146.822C373.504 147.189 373.055 148.21 372.729 149.026C372.198 150.209 371.75 150.617 370.525 150.944C369.505 151.229 358.691 151.393 338.778 151.393H308.581V181.467C308.581 214.847 308.622 214.48 306.133 215.663C303.521 216.846 301.195 216.275 298.094 213.663C294.584 210.685 293.85 210.399 289.198 210.399C285.199 210.358 284.791 210.44 282.995 211.501C278.792 213.99 276.303 217.254 275.12 221.825C274.589 223.947 274.589 224.355 275.324 227.007C276.548 231.455 279.323 234.924 283.281 237.005C285.036 237.943 285.852 238.066 288.994 238.107C292.258 238.107 292.911 237.984 295.074 236.882C296.38 236.229 298.216 235.005 299.195 234.148C300.828 232.72 301.154 232.598 303.399 232.598C306.377 232.598 307.642 233.455 308.336 235.944C308.703 237.25 308.785 245.533 308.703 267.406L308.581 297.072H337.472C365.751 297.072 366.322 297.072 366.322 296.297C366.322 295.848 366.159 295.358 365.914 295.236C364.241 294.175 361.834 287.197 361.834 283.279C361.834 280.301 363.058 275.404 364.404 273.078C367.873 266.957 373.994 263.611 381.666 263.611C388.725 263.611 394.071 266.467 397.866 272.302C400.192 275.893 400.6 277.567 400.6 283.075C400.6 287.156 400.437 288.462 399.743 290.217C398.845 292.543 397.213 295.236 395.948 296.338C395.213 297.031 396.56 297.072 424.757 297.072C451.404 297.072 454.383 296.991 454.628 296.419C454.954 295.562 454.873 243.003 454.546 240.881L454.261 239.168L451.69 240.8C448.425 242.881 445.61 243.615 440.958 243.615C434.918 243.615 430.838 242.024 427.247 238.27C423.166 233.985 421.819 230.517 421.819 224.11C421.819 218.03 423.084 214.52 426.635 210.807C430.634 206.604 434.877 204.849 441.162 204.849C446.467 204.849 450.18 206.033 453.118 208.644C453.648 209.093 454.179 209.338 454.342 209.175C454.75 208.767 455.036 161.104 454.669 155.555L454.383 151.393H424.023C391.092 151.393 391.663 151.433 390.194 149.189C389.664 148.414 389.541 147.557 389.664 145.924C389.827 144.007 390.072 143.435 391.663 141.681C393.704 139.355 394.52 137.886 395.499 134.499C396.111 132.499 396.152 131.765 395.785 130.132C393.826 121.685 385.624 116.054 378.279 118.135Z" fill="url(#paint5_linear_73_28)"/>
<path d="M529.263 118.135C524.693 119.4 519.837 124.379 518.898 128.826C518.001 133.356 519.347 138.171 522.571 141.558C524.693 143.843 525.101 145.516 524.244 148.618C523.428 151.433 524.04 151.393 489.885 151.393H459.77L459.688 153.106C459.606 154.086 459.566 168.205 459.566 184.527C459.566 214.071 459.565 214.194 458.709 215.051C458.137 215.622 457.117 215.989 455.648 216.153C453.485 216.357 453.363 216.316 451.241 214.602C446.997 211.133 445.61 210.481 441.978 210.236C437.652 209.991 435.367 210.725 432.348 213.419C424.227 220.641 425.206 230.843 434.633 236.556C437.04 238.066 437.244 238.107 440.998 238.107C445.365 238.066 445.895 237.903 450.098 234.72C454.587 231.292 458.382 231.496 459.361 235.128C459.688 236.229 459.77 246.472 459.729 266.712C459.647 283.157 459.729 296.746 459.851 296.868C459.974 296.99 473.807 297.072 490.579 297.072C513.593 297.072 521.428 297.195 522.489 297.562C525.183 298.541 525.346 303.356 522.734 306.254C520.49 308.743 519.47 310.538 518.939 312.905C518.245 315.925 518.613 318.659 520.123 321.719C521.632 324.78 523.142 326.371 526.488 328.412C528.814 329.84 529.1 329.881 532.609 329.881C535.833 329.881 536.527 329.758 538.486 328.738C541.22 327.351 544.566 324.004 545.831 321.434C546.565 319.883 546.769 318.74 546.81 316.129C546.851 313.109 546.688 312.456 545.504 310.008C544.77 308.498 543.668 306.907 543.097 306.417C541.546 305.193 541.015 304.091 540.975 301.887C540.975 299.725 541.587 298.092 542.566 297.603C542.933 297.439 557.175 297.235 574.232 297.154C591.289 297.113 605.368 296.909 605.531 296.746C605.857 296.419 606.184 151.964 605.816 151.637C605.694 151.515 591.657 151.352 574.599 151.27C557.583 151.229 543.301 151.025 542.893 150.821C541.75 150.25 540.975 148.332 540.975 146.006C540.975 143.68 541.383 142.864 543.586 140.579C545.871 138.253 546.81 135.764 546.81 132.05C546.851 129.357 546.647 128.337 545.872 126.705C544.933 124.705 540.771 119.971 539.995 119.971C539.791 119.971 539.302 119.727 538.975 119.4C538.037 118.625 534.323 117.523 532.732 117.564C531.997 117.564 530.447 117.849 529.263 118.135Z" fill="url(#paint6_linear_73_28)"/>
<path d="M246.269 151.678C246.147 152.086 246.718 153.637 247.453 155.188C250.758 161.839 250.064 171.796 245.984 176.693C243.739 179.345 241.821 180.977 239.21 182.324L236.353 183.834L230.232 183.793C224.152 183.793 224.111 183.793 221.336 182.406C217.909 180.732 214.195 176.856 212.359 173.02C211.135 170.449 211.094 170.204 211.094 164.859C211.135 159.595 211.176 159.227 212.4 156.33C213.134 154.657 214.073 153.025 214.522 152.739C214.971 152.413 215.338 152.005 215.338 151.76C215.338 151.515 204.443 151.433 186.284 151.474L157.188 151.597L157.107 182.773C156.984 217.581 157.188 215.54 154.169 216.071C151.639 216.479 150.211 215.989 147.721 213.786C146.456 212.684 145.232 211.786 145.028 211.786C144.783 211.786 144.253 211.46 143.804 211.093C143.192 210.521 142.253 210.358 138.703 210.358C134.704 210.358 134.174 210.44 132.5 211.46C126.38 215.132 123.401 221.09 124.747 226.966C125.4 229.864 126.706 232.026 129.154 234.312C132.419 237.372 134.133 238.066 138.417 238.107C141.723 238.107 142.335 237.984 144.498 236.882C145.844 236.189 147.681 234.964 148.578 234.108C150.088 232.72 150.374 232.598 152.7 232.598C154.822 232.598 155.352 232.761 156.128 233.536L157.025 234.516V265.569C157.025 283.851 157.188 296.746 157.393 296.868C157.597 296.99 171.308 297.113 187.793 297.072C206.524 297.072 218.398 297.195 219.337 297.48C221.214 297.97 222.275 299.602 222.275 301.887C222.275 303.152 221.949 303.928 220.847 305.315C217.133 309.926 215.501 313.64 215.909 316.496C216.521 321.189 220.235 326.861 222.683 326.861C223.581 326.861 223.866 327.065 223.989 327.759C224.275 329.881 232.028 330.819 235.333 329.105C239.577 326.902 241.577 324.902 243.331 320.944C244.27 318.781 244.351 318.088 244.229 315.027C244.066 311.844 243.943 311.354 242.515 308.988C241.617 307.559 240.638 306.213 240.271 305.927C237.373 303.764 237.7 298.99 240.801 297.684C242.025 297.154 246.881 297.072 272.671 297.072H303.072V267.569C303.072 251.369 302.909 238.311 302.746 238.555C302.174 239.412 298.379 241.82 296.339 242.595C293.483 243.738 285.036 243.779 282.057 242.677C277.201 240.922 273.651 237.576 271.325 232.598C269.937 229.66 269.896 229.333 269.856 224.64C269.815 220.396 269.937 219.376 270.794 217.091C272.712 212.031 276.099 208.44 281.037 206.277C286.464 203.911 294.584 204.196 298.951 206.971C299.889 207.583 300.909 207.869 301.766 207.787L303.072 207.665V151.393H275.364C260.103 151.393 247.371 151.27 247.045 151.148C246.637 151.025 246.351 151.188 246.269 151.678Z" fill="url(#paint7_linear_73_28)"/>
<path d="M377.952 269.201C376.565 269.568 373.545 271.446 372.117 272.751C370.117 274.588 368.608 276.954 367.751 279.444C366.363 283.688 367.995 289.523 371.423 292.91C373.055 294.461 373.586 296.827 372.851 299.48C372.035 302.499 373.545 302.377 339.186 302.377H308.785V331.554C308.785 347.999 308.948 360.73 309.152 360.73C309.356 360.73 309.724 360.445 310.009 360.118C311.029 358.853 314.865 357.058 317.722 356.446C328.454 354.201 337.35 358.853 340.981 368.606C342.206 371.993 342.206 378.889 340.941 382.236C339.635 385.826 337.023 389.254 333.963 391.417C330.168 394.151 327.842 394.722 321.517 394.518C317.028 394.355 316.049 394.192 314.049 393.294C312.784 392.723 310.948 391.539 310.009 390.682C308.377 389.213 308.255 389.173 308.499 390.111C308.663 390.682 308.785 404.026 308.785 419.778V448.465H381.38C427.083 448.465 454.097 448.301 454.261 448.057C454.465 447.771 454.546 423.695 454.465 395.294V389.254L452.751 390.601C450.058 392.723 448.792 393.457 446.548 394.029C443.569 394.845 436.469 394.763 433.612 393.906C428.961 392.519 424.023 387.908 422.309 383.378C421.044 380.073 420.432 374.727 421.003 371.871C423.044 362.036 430.389 355.915 440.264 355.834C444.753 355.834 449.813 357.507 452.547 359.914C453.363 360.608 454.097 361.016 454.22 360.812C454.424 360.486 454.587 325.882 454.505 307.151L454.465 302.377H423.533C395.499 302.377 392.52 302.295 391.622 301.724C389.949 300.622 389.582 299.888 389.582 297.847C389.582 295.358 389.99 294.379 391.786 292.502C393.54 290.665 394.356 289.074 395.132 286.177C395.907 283.239 395.866 282.137 394.846 278.913C393.826 275.608 391.174 272.507 387.623 270.507C385.665 269.405 384.849 269.201 382.033 269.079C380.237 269.038 378.401 269.079 377.952 269.201Z" fill="url(#paint8_linear_73_28)"/>
<path d="M76.1874 269.691C70.352 271.527 65.6593 276.628 64.9655 281.892C64.4759 285.524 65.9857 290.135 68.5157 292.747C70.5152 294.869 71.0049 296.134 70.7601 298.664C70.352 302.703 73.2901 302.377 37.3803 302.377H6V448.465H151.231L151.72 447.567C152.088 446.873 152.21 439.406 152.21 418.594C152.21 403.129 152.088 390.397 151.965 390.234C151.802 390.111 150.904 390.642 149.925 391.458C147.15 393.743 144.008 394.6 138.54 394.6C133.357 394.6 130.95 394.029 128.053 392.152C124.91 390.152 122.462 387.296 120.83 383.786C119.32 380.562 119.32 380.481 119.32 375.38V370.238L120.993 366.729C122.299 364.077 123.237 362.771 125.033 361.139C131.97 354.854 142.457 354.12 150.047 359.343L152.088 360.73L152.128 356.568C152.128 351.1 152.128 309.151 152.128 305.356L152.088 302.377L120.707 302.295C90.9186 302.173 89.2863 302.132 88.511 301.438C86.5931 299.725 87.0419 295.317 89.3271 293.155C90.9594 291.604 92.6732 288.258 93.2853 285.361C93.8158 282.79 93.1221 280.056 91.041 276.587C89.3271 273.812 87.4092 272.18 83.7366 270.548C80.9617 269.324 78.3909 269.038 76.1874 269.691Z" fill="url(#paint9_linear_73_28)"/>
<path d="M157.515 302.867C157.352 303.152 157.148 316.618 157.107 332.778C157.025 348.937 156.984 362.852 156.984 363.709C156.984 366.076 155.597 367.259 152.781 367.259C150.496 367.259 149.558 366.77 146.905 364.24C142.172 359.792 134.133 360.282 128.91 365.342C125.767 368.402 124.135 372.279 124.462 375.87C124.747 379.093 125.155 380.277 126.624 382.603C131.644 390.438 141.6 391.825 148.129 385.582C150.129 383.664 150.333 383.582 152.577 383.582C154.414 383.582 155.107 383.786 155.964 384.521L157.066 385.418L156.984 414.269C156.984 430.142 157.066 443.568 157.229 444.139C157.352 444.71 157.719 445.2 158.045 445.2C158.413 445.2 158.617 445.649 158.617 446.424C158.617 447.281 158.413 447.648 157.964 447.648C157.637 447.648 157.474 447.853 157.597 448.057C157.76 448.342 182.489 448.465 230.477 448.465H303.072V418.064C303.072 386.031 303.072 386.112 304.868 384.276C305.398 383.786 306.255 383.582 308.132 383.582C310.703 383.582 310.744 383.623 313.6 385.99C316.008 387.989 316.906 388.479 319.354 389.091C324.292 390.274 328.495 389.05 332.249 385.296C335.024 382.521 335.636 381.419 336.37 377.869C337.554 372.36 335.064 366.892 329.923 363.587C326.699 361.465 325.148 361.016 321.925 361.22C318.66 361.383 315.273 362.975 312.498 365.586C310.866 367.096 310.499 367.259 308.54 367.259C305.48 367.259 304.5 366.77 303.725 364.811C303.113 363.301 303.072 360.078 303.072 332.86L303.113 302.581L275.038 302.459C248.514 302.377 244.351 302.459 245.412 303.111C246.596 303.887 248.473 308.294 249.248 312.007C249.901 315.313 249.942 316.374 249.575 318.455C248.636 323.964 246.759 327.759 243.535 330.656C237.659 335.961 227.825 336.981 220.48 333.064C218.521 332.043 213.298 327.187 213.298 326.412C213.298 326.249 212.808 325.025 212.196 323.719C211.135 321.515 211.094 320.985 211.094 315.843C211.094 310.497 211.135 310.253 212.441 307.478C213.175 305.886 214.236 304.132 214.848 303.479L215.909 302.377H186.855C164.085 302.377 157.76 302.499 157.515 302.867Z" fill="url(#paint10_linear_73_28)"/>
<path d="M459.606 304.866C459.484 306.254 459.361 320.291 459.361 336.083C459.361 361.016 459.28 364.852 458.749 365.382C458.423 365.709 458.137 366.158 458.137 366.362C458.137 366.974 457.035 367.259 454.546 367.259C452.343 367.259 452.098 367.137 449.894 365.26C446.548 362.363 443.692 361.138 440.509 361.138C435.082 361.138 430.062 364.485 427.247 370.034C426.349 371.83 426.145 372.687 426.186 375.38C426.186 379.42 427.532 382.358 430.756 385.5C434.347 389.009 439.733 390.356 444.263 388.928C445.854 388.397 448.14 387.173 448.752 386.439C448.874 386.316 449.731 385.622 450.629 384.888C452.098 383.745 452.669 383.582 454.71 383.582C456.709 383.582 457.24 383.745 458.219 384.684L459.361 385.786V416.187C459.361 432.917 459.484 447.036 459.606 447.567L459.851 448.465H605.857L605.939 377.747C606.02 338.899 606.02 306.009 605.939 304.703L605.816 302.377H547.463L548.116 303.479C548.483 304.132 549.218 305.233 549.748 305.968C550.85 307.478 552.401 313.558 552.401 316.333C552.401 322.658 548.401 329.595 542.933 332.819C539.71 334.696 536.69 335.43 532.405 335.43C523.836 335.389 516.246 329.758 514.042 321.76C513.185 318.74 513.308 312.048 514.206 309.355C515.022 306.988 517.225 303.193 517.756 303.193C517.96 303.193 518.123 302.989 518.123 302.785C518.123 302.499 508.737 302.377 490.783 302.377C472.828 302.377 463.442 302.499 463.442 302.785C463.442 302.989 462.993 303.193 462.422 303.193C461.851 303.193 461.402 302.989 461.402 302.785C461.402 302.54 461.075 302.377 460.626 302.377C460.014 302.377 459.851 302.826 459.606 304.866Z" fill="url(#paint11_linear_73_28)"/>
</g>
<defs>
<filter id="filter0_d_73_28" x="0" y="0" width="616" height="464.465" filterUnits="userSpaceOnUse" color-interpolation-filters="sRGB">
<feFlood flood-opacity="0" result="BackgroundImageFix"/>
<feColorMatrix in="SourceAlpha" type="matrix" values="0 0 0 0 0 0 0 0 0 0 0 0 0 0 0 0 0 0 127 0" result="hardAlpha"/>
<feOffset dx="2" dy="8"/>
<feGaussianBlur stdDeviation="4"/>
<feComposite in2="hardAlpha" operator="out"/>
<feColorMatrix type="matrix" values="0 0 0 0 0 0 0 0 0 0 0 0 0 0 0 0 0 0 0.25 0"/>
<feBlend mode="normal" in2="BackgroundImageFix" result="effect1_dropShadow_73_28"/>
<feBlend mode="normal" in="SourceGraphic" in2="effect1_dropShadow_73_28" result="shape"/>
</filter>
<linearGradient id="paint0_linear_73_28" x1="606" y1="224.232" x2="6" y2="224.232" gradientUnits="userSpaceOnUse">
<stop stop-color="#24B7DC"/>
<stop offset="1" stop-color="#0081A2"/>
</linearGradient>
<linearGradient id="paint1_linear_73_28" x1="606" y1="224.232" x2="6" y2="224.232" gradientUnits="userSpaceOnUse">
<stop stop-color="#24B7DC"/>
<stop offset="1" stop-color="#0081A2"/>
</linearGradient>
<linearGradient id="paint2_linear_73_28" x1="606" y1="224.232" x2="6" y2="224.232" gradientUnits="userSpaceOnUse">
<stop stop-color="#24B7DC"/>
<stop offset="1" stop-color="#0081A2"/>
</linearGradient>
<linearGradient id="paint3_linear_73_28" x1="606" y1="224.232" x2="6" y2="224.232" gradientUnits="userSpaceOnUse">
<stop stop-color="#24B7DC"/>
<stop offset="1" stop-color="#0081A2"/>
</linearGradient>
<linearGradient id="paint4_linear_73_28" x1="606" y1="224.232" x2="6" y2="224.232" gradientUnits="userSpaceOnUse">
<stop stop-color="#24B7DC"/>
<stop offset="1" stop-color="#0081A2"/>
</linearGradient>
<linearGradient id="paint5_linear_73_28" x1="606" y1="224.232" x2="6" y2="224.232" gradientUnits="userSpaceOnUse">
<stop stop-color="#24B7DC"/>
<stop offset="1" stop-color="#0081A2"/>
</linearGradient>
<linearGradient id="paint6_linear_73_28" x1="606" y1="224.232" x2="6" y2="224.232" gradientUnits="userSpaceOnUse">
<stop stop-color="#24B7DC"/>
<stop offset="1" stop-color="#0081A2"/>
</linearGradient>
<linearGradient id="paint7_linear_73_28" x1="606" y1="224.232" x2="6" y2="224.232" gradientUnits="userSpaceOnUse">
<stop stop-color="#24B7DC"/>
<stop offset="1" stop-color="#0081A2"/>
</linearGradient>
<linearGradient id="paint8_linear_73_28" x1="606" y1="224.232" x2="6" y2="224.232" gradientUnits="userSpaceOnUse">
<stop stop-color="#24B7DC"/>
<stop offset="1" stop-color="#0081A2"/>
</linearGradient>
<linearGradient id="paint9_linear_73_28" x1="606" y1="224.232" x2="6" y2="224.232" gradientUnits="userSpaceOnUse">
<stop stop-color="#24B7DC"/>
<stop offset="1" stop-color="#0081A2"/>
</linearGradient>
<linearGradient id="paint10_linear_73_28" x1="606" y1="224.232" x2="6" y2="224.232" gradientUnits="userSpaceOnUse">
<stop stop-color="#24B7DC"/>
<stop offset="1" stop-color="#0081A2"/>
</linearGradient>
<linearGradient id="paint11_linear_73_28" x1="606" y1="224.232" x2="6" y2="224.232" gradientUnits="userSpaceOnUse">
<stop stop-color="#24B7DC"/>
<stop offset="1" stop-color="#0081A2"/>
</linearGradient>
</defs>
</svg>
