<svg width="1345" height="1014" viewBox="0 0 1345 1014" fill="none" xmlns="http://www.w3.org/2000/svg">
<g filter="url(#filter0_d_96_6)">
<path d="M16.6251 12.6251C16.2679 12.893 16 84.8676 16 172.469V331.689H145.572L142.179 327.402C137.267 321.33 136.106 318.83 134.32 309.9C132.892 302.934 132.802 301.059 133.695 294.272C135.035 284.896 138.517 277.484 144.59 271.144C153.52 261.768 161.914 258.464 176.559 258.464C187.542 258.464 192.275 259.714 199.687 264.447C205.134 267.929 207.902 270.608 211.921 276.77C219.958 288.915 220.761 307.131 213.885 320.883C212.189 324.098 210.046 327.581 208.974 328.474C207.902 329.456 207.099 330.528 207.099 330.974C207.099 331.331 235.585 331.689 270.411 331.689C324.526 331.689 333.813 331.51 334.796 330.438C335.599 329.456 335.778 313.204 335.778 263.197C335.778 214.082 336.046 196.491 336.849 194.169C337.742 191.579 338.546 190.954 342.207 189.883C347.744 188.364 349.619 188.811 354.441 193.187C356.674 195.24 361.317 198.277 364.889 200.063C370.872 203.099 371.676 203.277 377.391 202.92C389.268 202.027 399.716 194.705 405.341 183.007C408.377 176.756 408.377 166.933 405.431 160.861C402.93 155.771 398.197 149.877 394.268 147.109C392.75 146.037 391.054 144.787 390.607 144.34C390.071 143.894 387.392 142.822 384.535 141.929C374.623 138.804 365.246 141.393 355.781 149.609C351.226 153.538 350.333 153.985 346.404 153.985C339.886 153.985 337.742 152.824 336.581 148.805C335.956 146.484 335.778 123.534 335.867 79.7776C336.046 43.701 335.778 13.6967 335.421 13.0716C334.796 12.2679 301.934 12 175.934 12C88.5997 12 16.893 12.2679 16.6251 12.6251Z" fill="#151515"/>
<path d="M346.94 13.4288C346.672 14.2325 346.404 40.9327 346.404 72.9016C346.404 130.142 346.404 130.946 348.19 131.392C350.333 131.928 350.691 136.125 348.637 136.125C347.833 136.125 347.297 136.929 347.297 138.089V139.965L349.351 138.179C350.423 137.107 353.905 134.964 357.12 133.357C362.657 130.499 363.371 130.32 374.712 130.053C384.178 129.785 387.392 130.053 391.232 131.303C403.02 135.232 412.842 144.965 416.95 157.021C419.093 163.45 419.45 178.899 417.486 185.239C414.986 193.454 407.484 203.813 401.591 207.206C390.428 213.547 383.552 215.243 372.837 214.35C366.229 213.815 356.406 211.136 354.173 209.35C349.173 205.331 347.387 203.992 346.94 203.992C346.672 203.992 346.494 232.657 346.583 267.572L346.851 331.242L485.174 332.135L487.228 335.171C488.567 337.136 489.282 339.547 489.282 341.958C489.282 345.262 488.657 346.423 485.263 350.263C480.709 355.263 476.244 364.193 475.351 369.64C474.994 372.23 475.441 375.177 476.691 379.374C479.102 387.143 479.816 388.393 484.995 393.93C491.068 400.27 500.801 404.467 508.034 403.752C519.108 402.77 530.359 394.733 535.003 384.643C537.146 379.91 537.503 377.856 537.503 371.605C537.503 364.729 537.324 363.836 534.378 358.925C532.681 356.067 529.823 352.227 528.127 350.352C525.269 347.137 525.001 346.423 525.001 341.154C525.001 335.975 525.269 335.171 527.323 333.564C529.645 331.689 530.27 331.689 597.333 331.689C650.466 331.689 665.11 331.421 665.736 330.528C666.182 329.992 666.361 301.327 666.093 265.608C665.736 213.993 665.468 202.116 664.575 203.724C663.95 204.795 660.467 207.206 656.984 209.171C644.304 216.136 627.159 216.315 614.478 209.707C609.388 207.028 599.923 197.473 597.779 192.919C594.386 185.328 593.582 182.381 593.136 174.97C591.975 156.306 600.28 141.393 616.086 133.625L622.694 130.32H636.624C651.18 130.32 652.877 130.678 658.86 135.321C660.02 136.303 661.896 137.018 663.057 137.018C664.575 137.018 665.2 137.643 665.468 139.429C665.646 140.858 665.914 112.729 666.003 76.92L666.093 12H506.784C362.389 12 347.476 12.0893 346.94 13.4288Z" fill="#151515"/>
<path d="M678.595 13.0716C678.595 13.6967 678.595 42.6294 678.595 77.2772C678.684 144.162 678.416 148.002 674.487 151.931C672.79 153.627 671.451 153.985 667.254 153.985C661.717 153.985 660.735 153.538 652.519 146.751C636.446 133.446 611.71 143.269 605.281 165.415C603.495 171.576 603.673 174.434 606.531 182.114C608.942 188.543 616.979 197.562 622.158 199.705C623.497 200.241 625.908 201.223 627.605 202.027C635.017 205.242 647.429 201.759 657.163 193.722C661.628 190.061 662.521 189.704 666.807 189.704C671.093 189.704 671.986 190.061 674.576 192.651C676.719 194.794 677.702 196.759 678.148 199.616C678.416 201.759 678.595 232.389 678.416 267.662L678.148 331.688H740.746C811.56 331.688 806.738 332.224 801.916 324.634C798.701 319.544 796.736 313.918 795.486 305.703C793.432 292.129 799.147 276.77 809.774 267.751C818.168 260.518 826.83 258.107 841.564 258.642C851.03 259 851.834 259.178 857.727 262.393C874.248 271.412 881.57 285.789 879.963 306.238C879.248 314.632 876.033 322.401 871.033 328.027L867.729 331.688H931.934C980.691 331.688 996.408 331.421 997.211 330.617C998.015 329.813 998.283 313.204 998.283 261.5V193.365L1000.6 191.579C1003.28 189.436 1009.62 189.079 1012.84 190.776C1013.91 191.311 1016.59 193.365 1018.82 195.33C1024.89 200.688 1029.63 202.474 1038.11 202.563C1044.99 202.652 1045.88 202.384 1052.31 199.08C1056.33 197.026 1059.9 194.437 1061.06 192.829C1062.04 191.401 1063.2 189.972 1063.47 189.704C1066.24 187.204 1069.72 177.202 1069.72 171.487C1069.72 167.469 1067.31 159.7 1064.81 155.86C1062.76 152.556 1058.74 148.716 1054.09 145.412C1043.11 137.911 1028.56 139.607 1017.48 149.788C1011.05 155.771 1005.43 156.306 999.89 151.484C998.372 150.234 998.283 145.858 998.283 84.2425C998.283 26.9128 998.104 18.1616 996.943 17.0007C996.229 16.2863 995.604 15.1254 995.604 14.4111C995.604 13.6967 994.354 12.893 992.836 12.5358C991.318 12.2679 919.968 12 834.331 12C710.385 12 678.595 12.2679 678.595 13.0716Z" fill="#151515"/>
<path d="M1009.27 13.0716C1008.46 14.3218 1008.46 137.643 1009.18 138.447C1009.45 138.715 1011.41 137.732 1013.55 136.214C1015.7 134.785 1020.07 132.732 1023.29 131.66C1028.38 129.963 1030.52 129.785 1040.7 130.053C1051.33 130.41 1052.76 130.678 1057.49 132.999C1063.47 135.857 1071.6 142.912 1074.72 147.912C1079.28 155.145 1080.44 159.878 1080.44 171.844C1080.44 186.757 1078.21 192.651 1068.65 202.742C1060.43 211.404 1045.61 215.868 1031.59 213.815C1022.48 212.475 1020.79 211.939 1014.45 207.653L1009 204.081L1008.91 210.511C1008.91 217.565 1008.91 312.489 1009 324.277V331.689H1073.29C1108.66 331.689 1137.59 331.421 1137.59 331.063C1137.59 330.706 1136.61 329.456 1135.45 328.206C1132.59 325.08 1129.64 319.723 1127.94 314.275C1125.89 307.757 1125.98 292.487 1128.12 286.146C1131.78 275.431 1139.55 266.858 1150.09 261.768C1155.81 259 1156.16 258.91 1168.84 258.91C1181.61 258.91 1181.88 258.91 1187.77 261.857C1192.06 263.911 1195.28 266.501 1199.38 270.876C1208.22 280.431 1211.26 288.289 1211.26 301.327C1211.17 310.882 1209.21 317.49 1204.03 325.17C1201.88 328.384 1200.1 331.153 1200.1 331.331C1200.1 332.135 1327.71 331.599 1328.15 330.885C1328.51 330.349 1328.96 49.0589 1328.69 13.5181C1328.69 12.0893 1320.47 12 1169.38 12C1042.84 12 1009.89 12.2679 1009.27 13.0716Z" fill="#151515"/>
<path d="M168.7 270.608C160.128 272.93 152.448 279.449 147.626 288.289C145.483 292.129 145.126 293.915 145.126 299.988C145.126 305.078 145.483 308.024 146.644 310.168C147.447 311.864 148.162 313.65 148.162 314.186C148.162 314.722 150.126 317.49 152.537 320.258C157.449 326.063 158.431 328.831 157.538 335.26C156.913 339.904 156.288 340.797 152.627 342.047C151.376 342.404 120.301 343.029 83.4203 343.297L16.4465 343.744L16 662.093H139.053L139.678 659.592C140.036 657.806 139.5 655.931 137.982 653.074C135.392 648.43 132.981 638.697 132.981 632.714C132.981 630.392 133.606 626.195 134.32 623.427C135.035 620.569 135.66 617.711 135.66 617.086C135.66 615.39 141.464 605.924 144.411 602.888C148.34 598.78 156.02 594.047 161.914 592.261C166.379 590.833 169.325 590.565 178.077 590.833C188.435 591.19 189.06 591.279 195.758 594.583C212.099 602.709 221.029 620.837 217.993 640.125C217.457 643.876 216.564 647.626 216.118 648.43C215.761 649.323 214.421 651.823 213.35 654.056C212.189 656.288 210.492 658.967 209.51 660.039L207.724 662.093H271.304C323.812 662.093 334.974 661.914 335.331 660.843C336.046 659.057 336.224 534.396 335.51 534.396C335.153 534.396 334.617 534.753 334.349 535.289C333.099 537.343 324.08 542.433 319.258 543.772C312.024 545.915 296.219 545.201 289.61 542.611C279.52 538.504 272.376 531.628 267.197 521.001C263.982 514.393 263.892 514.125 263.892 503.142C263.892 493.587 264.25 491.176 265.946 486.711C270.233 475.995 277.644 468.226 288.36 463.314C293.54 460.993 295.326 460.725 304.613 460.457C316.757 460.1 321.311 461.171 329.884 466.618C332.831 468.494 335.331 469.922 335.421 469.744C336.135 469.029 335.867 343.833 335.153 343.565C334.706 343.387 303.988 343.208 266.929 343.029C214.6 342.94 199.062 342.583 197.544 341.69C194.24 339.815 192.543 330.26 194.686 326.152C195.222 325.08 196.919 322.937 198.437 321.241C202.277 317.044 205.045 311.864 206.563 306.238C209.331 295.523 203.884 283.646 192.097 274.627C186.024 270.073 176.559 268.376 168.7 270.608Z" fill="#151515"/>
<path d="M830.67 270.519C824.687 272.216 820.222 274.984 815.4 280.253C806.47 289.986 804.327 302.041 809.685 312.579C811.203 315.615 814.06 320.08 816.114 322.401C818.079 324.812 820.133 327.224 820.579 327.849C821.651 329.188 821.74 331.242 820.668 333.296C820.222 334.1 819.24 336.332 818.525 338.118C817.364 340.708 816.382 341.601 813.703 342.315C811.471 342.94 787.807 343.297 744.229 343.297H678.148V409.11C678.148 482.156 678.237 481.353 672.79 483.942C667.075 486.532 661.985 485.282 655.198 479.567C647.519 473.048 645.911 472.423 635.731 472.423C626.98 472.334 626.087 472.512 622.158 474.834C612.96 480.281 607.513 487.425 604.923 497.426C603.762 502.07 603.762 502.963 605.37 508.767C608.049 518.501 614.121 526.091 622.783 530.645C626.623 532.699 628.409 532.967 635.285 533.056C642.429 533.056 643.857 532.789 648.59 530.378C651.448 528.949 655.466 526.27 657.609 524.395C661.181 521.269 661.896 521.001 666.807 521.001C673.326 521.001 676.094 522.876 677.612 528.324C678.416 531.181 678.595 549.309 678.416 597.173L678.148 662.093H741.371C803.255 662.093 804.505 662.093 804.505 660.396C804.505 659.414 804.148 658.342 803.612 658.074C799.951 655.753 794.683 640.483 794.683 631.91C794.683 625.391 797.361 614.675 800.308 609.585C807.899 596.191 821.293 588.868 838.082 588.868C853.53 588.868 865.228 595.119 873.533 607.889C878.623 615.747 879.516 619.408 879.516 631.463C879.516 640.393 879.159 643.251 877.641 647.091C875.676 652.181 872.104 658.074 869.336 660.485C867.729 662.003 870.675 662.093 932.381 662.093C990.693 662.093 997.211 661.914 997.747 660.664C998.462 658.789 998.283 543.772 997.569 539.129L996.944 535.378L991.318 538.95C984.174 543.504 978.012 545.112 967.832 545.112C954.616 545.112 945.686 541.629 937.828 533.414C928.898 524.037 925.951 516.447 925.951 502.427C925.951 489.122 928.72 481.442 936.489 473.316C945.24 464.118 954.527 460.278 968.279 460.278C979.888 460.278 988.014 462.868 994.443 468.583C995.604 469.565 996.765 470.101 997.122 469.744C998.015 468.851 998.64 364.55 997.837 352.406L997.211 343.297H930.773C858.71 343.297 859.96 343.387 856.745 338.475C855.584 336.779 855.316 334.903 855.584 331.331C855.941 327.134 856.477 325.884 859.96 322.044C864.425 316.954 866.211 313.739 868.354 306.328C869.693 301.952 869.783 300.345 868.979 296.773C864.692 278.288 846.744 265.965 830.67 270.519Z" fill="#151515"/>
<path d="M1161.07 270.519C1151.07 273.287 1140.45 284.182 1138.39 293.915C1136.43 303.827 1139.37 314.365 1146.43 321.776C1151.07 326.777 1151.97 330.438 1150.09 337.225C1148.3 343.387 1149.64 343.297 1074.9 343.297H1009L1008.82 347.048C1008.64 349.191 1008.55 380.088 1008.55 415.808C1008.55 480.46 1008.55 480.728 1006.68 482.603C1005.43 483.853 1003.19 484.657 999.98 485.014C995.247 485.46 994.979 485.371 990.336 481.621C981.049 474.03 978.012 472.602 970.065 472.066C960.599 471.53 955.599 473.137 948.99 479.031C931.22 494.837 933.363 517.161 953.991 529.663C959.26 532.967 959.706 533.057 967.922 533.057C977.477 532.967 978.638 532.61 987.835 525.645C997.658 518.144 1005.96 518.59 1008.11 526.538C1008.82 528.949 1009 551.363 1008.91 595.655C1008.73 631.642 1008.91 661.378 1009.18 661.646C1009.45 661.914 1039.72 662.093 1076.42 662.093C1126.78 662.093 1143.93 662.361 1146.25 663.164C1152.14 665.308 1152.5 675.845 1146.79 682.185C1141.88 687.632 1139.64 691.561 1138.48 696.741C1136.96 703.349 1137.77 709.332 1141.07 716.029C1144.38 722.726 1147.68 726.209 1155 730.674C1160.09 733.8 1160.72 733.889 1168.4 733.889C1175.45 733.889 1176.97 733.621 1181.26 731.388C1187.24 728.352 1194.56 721.03 1197.33 715.404C1198.94 712.011 1199.38 709.51 1199.47 703.795C1199.56 697.187 1199.2 695.758 1196.62 690.4C1195.01 687.096 1192.6 683.614 1191.35 682.542C1187.95 679.863 1186.79 677.452 1186.7 672.63C1186.7 667.897 1188.04 664.325 1190.19 663.254C1190.99 662.896 1222.15 662.45 1259.48 662.271C1296.81 662.182 1327.62 661.736 1327.97 661.378C1328.69 660.664 1329.4 344.547 1328.6 343.833C1328.33 343.565 1297.61 343.208 1260.28 343.029C1223.05 342.94 1191.79 342.494 1190.9 342.047C1188.4 340.797 1186.7 336.6 1186.7 331.51C1186.7 326.42 1187.6 324.634 1192.42 319.633C1197.42 314.543 1199.47 309.096 1199.47 300.97C1199.56 295.076 1199.12 292.844 1197.42 289.272C1195.36 284.896 1186.26 274.537 1184.56 274.537C1184.11 274.537 1183.04 274.002 1182.33 273.287C1180.27 271.591 1172.15 269.18 1168.66 269.269C1167.06 269.269 1163.66 269.894 1161.07 270.519Z" fill="#151515"/>
<path d="M541.789 343.922C541.521 344.815 542.772 348.209 544.379 351.602C551.612 366.158 550.094 387.947 541.164 398.662C536.253 404.467 532.056 408.039 526.341 410.986L520.09 414.29L506.695 414.2C493.39 414.2 493.3 414.2 487.228 411.164C479.727 407.503 471.601 399.02 467.582 390.625C464.903 385 464.814 384.464 464.814 372.766C464.903 361.246 464.993 360.443 467.672 354.102C469.279 350.441 471.333 346.869 472.315 346.244C473.297 345.53 474.101 344.637 474.101 344.101C474.101 343.565 450.258 343.387 410.521 343.476L346.851 343.744L346.672 411.968C346.404 488.139 346.851 483.674 340.243 484.835C334.706 485.728 331.581 484.657 326.134 479.835C323.365 477.424 320.686 475.459 320.24 475.459C319.704 475.459 318.543 474.745 317.561 473.941C316.221 472.691 314.168 472.334 306.399 472.334C297.647 472.334 296.486 472.512 292.825 474.745C279.43 482.781 272.912 495.819 275.859 508.678C277.287 515.018 280.145 519.751 285.503 524.752C292.647 531.449 296.397 532.967 305.774 533.056C313.007 533.056 314.346 532.789 319.079 530.378C322.026 528.859 326.044 526.181 328.009 524.305C331.313 521.269 331.938 521.001 337.028 521.001C341.672 521.001 342.832 521.358 344.529 523.055L346.494 525.198V593.154C346.494 633.16 346.851 661.378 347.297 661.646C347.744 661.914 377.748 662.182 413.825 662.093C454.813 662.093 480.798 662.361 482.852 662.986C486.96 664.057 489.282 667.629 489.282 672.63C489.282 675.398 488.567 677.095 486.156 680.131C478.03 690.222 474.458 698.348 475.351 704.599C476.691 714.868 484.817 727.281 490.175 727.281C492.139 727.281 492.764 727.727 493.032 729.245C493.657 733.889 510.624 735.943 517.857 732.192C527.144 727.37 531.52 722.994 535.36 714.332C537.414 709.6 537.592 708.081 537.324 701.384C536.967 694.419 536.699 693.347 533.574 688.168C531.609 685.042 529.466 682.096 528.662 681.471C522.322 676.738 523.037 666.29 529.823 663.432C532.502 662.271 543.129 662.093 599.565 662.093H666.093V597.53C666.093 562.078 665.736 533.503 665.378 534.039C664.128 535.914 655.823 541.183 651.359 542.879C645.108 545.38 626.623 545.469 620.104 543.058C609.478 539.218 601.709 531.896 596.619 521.001C593.582 514.572 593.493 513.857 593.404 503.588C593.315 494.301 593.582 492.069 595.458 487.068C599.655 475.995 607.066 468.137 617.872 463.404C629.748 458.224 647.519 458.849 657.074 464.922C659.128 466.261 661.36 466.886 663.235 466.708L666.093 466.44V343.297H605.459C572.061 343.297 544.2 343.029 543.486 342.761C542.593 342.494 541.968 342.851 541.789 343.922Z" fill="#151515"/>
<path d="M829.955 601.102C826.919 601.906 820.311 606.013 817.186 608.871C812.81 612.889 809.506 618.069 807.631 623.516C804.595 632.803 808.167 645.573 815.668 652.984C819.24 656.378 820.4 661.557 818.793 667.361C817.007 673.969 820.311 673.702 745.122 673.702H678.595V737.55C678.595 773.537 678.952 801.398 679.398 801.398C679.845 801.398 680.648 800.773 681.273 800.059C683.506 797.291 691.9 793.362 698.151 792.022C721.636 787.111 741.103 797.291 749.051 818.633C751.73 826.045 751.73 841.136 748.962 848.459C746.104 856.317 740.389 863.818 733.692 868.551C725.387 874.534 720.297 875.784 706.456 875.338C696.633 874.98 694.49 874.623 690.114 872.659C687.346 871.408 683.327 868.819 681.273 866.943C677.702 863.729 677.434 863.639 677.969 865.693C678.327 866.944 678.595 896.144 678.595 930.613V993.39H837.456C937.471 993.39 996.586 993.033 996.944 992.497C997.39 991.872 997.569 939.186 997.39 877.034V863.818L993.64 866.765C987.746 871.408 984.978 873.016 980.066 874.266C973.547 876.052 958.009 875.873 951.759 873.998C941.579 870.962 930.773 860.871 927.023 850.959C924.255 843.726 922.915 832.028 924.165 825.777C928.63 804.256 944.704 790.861 966.314 790.683C976.137 790.683 987.21 794.344 993.193 799.612C994.979 801.13 996.586 802.023 996.854 801.577C997.301 800.863 997.658 725.137 997.479 684.149L997.39 673.702H929.702C868.354 673.702 861.835 673.523 859.87 672.273C856.209 669.862 855.406 668.254 855.406 663.789C855.406 658.342 856.298 656.199 860.228 652.091C864.067 648.073 865.853 644.59 867.55 638.25C869.247 631.821 869.157 629.41 866.925 622.355C864.693 615.122 858.888 608.335 851.119 603.96C846.833 601.548 845.047 601.102 838.885 600.834C834.956 600.745 830.938 600.834 829.955 601.102Z" fill="#151515"/>
<path d="M169.593 602.174C156.824 606.192 146.554 617.354 145.036 628.874C143.965 636.821 147.269 646.912 152.805 652.627C157.181 657.271 158.252 660.039 157.717 665.575C156.824 674.416 163.253 673.702 84.6705 673.702H16V993.39H333.813L334.885 991.425C335.688 989.907 335.956 973.566 335.956 928.024C335.956 894.18 335.688 866.318 335.421 865.961C335.063 865.693 333.099 866.854 330.956 868.64C324.883 873.641 318.007 875.516 306.041 875.516C294.701 875.516 289.432 874.266 283.092 870.158C276.216 865.783 270.858 859.532 267.286 851.852C263.982 844.798 263.982 844.619 263.982 833.457V822.205L267.643 814.525C270.501 808.721 272.554 805.863 276.484 802.291C291.664 788.539 314.614 786.932 331.224 798.362L335.688 801.398L335.778 792.29C335.778 780.324 335.778 688.525 335.778 680.22L335.688 673.702L267.018 673.523C201.83 673.255 198.258 673.166 196.561 671.648C192.364 667.897 193.347 658.253 198.347 653.52C201.919 650.127 205.67 642.804 207.009 636.464C208.17 630.838 206.652 624.855 202.098 617.265C198.347 611.193 194.15 607.621 186.114 604.049C180.041 601.37 174.415 600.745 169.593 602.174Z" fill="#151515"/>
<path d="M347.565 674.773C347.208 675.398 346.762 704.867 346.672 740.229C346.494 775.591 346.404 806.042 346.404 807.917C346.404 813.096 343.368 815.686 337.207 815.686C332.206 815.686 330.152 814.615 324.348 809.078C313.989 799.345 296.397 800.416 284.967 811.489C278.091 818.187 274.519 826.67 275.233 834.528C275.859 841.583 276.752 844.172 279.966 849.262C290.95 866.408 312.739 869.444 327.027 855.781C331.402 851.584 331.849 851.406 336.76 851.406C340.779 851.406 342.297 851.852 344.172 853.459L346.583 855.424L346.404 918.558C346.404 953.295 346.583 982.674 346.94 983.924C347.208 985.175 348.012 986.246 348.726 986.246C349.53 986.246 349.976 987.229 349.976 988.925C349.976 990.8 349.53 991.604 348.547 991.604C347.833 991.604 347.476 992.051 347.744 992.497C348.101 993.122 402.216 993.39 507.231 993.39H666.093V926.863C666.093 856.763 666.093 856.942 670.022 852.924C671.183 851.852 673.058 851.406 677.166 851.406C682.792 851.406 682.881 851.495 689.132 856.674C694.4 861.05 696.365 862.121 701.723 863.461C712.528 866.05 721.726 863.371 729.941 855.156C736.014 849.084 737.353 846.673 738.96 838.904C741.55 826.848 736.103 814.882 724.851 807.649C717.797 803.006 714.403 802.023 707.349 802.47C700.205 802.827 692.793 806.31 686.721 812.025C683.149 815.329 682.345 815.686 678.059 815.686C671.361 815.686 669.218 814.615 667.522 810.328C666.182 807.024 666.093 799.97 666.093 740.408L666.182 674.148L604.745 673.88C546.701 673.702 537.592 673.88 539.914 675.309C542.504 677.006 546.611 686.65 548.308 694.776C549.737 702.009 549.826 704.331 549.023 708.885C546.969 720.94 542.861 729.245 535.806 735.585C522.947 747.194 501.426 749.427 485.353 740.854C481.066 738.622 469.636 727.995 469.636 726.298C469.636 725.941 468.565 723.262 467.225 720.405C464.903 715.583 464.814 714.422 464.814 703.17C464.814 691.472 464.903 690.936 467.761 684.864C469.368 681.381 471.69 677.541 473.03 676.113L475.351 673.702H411.771C361.942 673.702 348.101 673.969 347.565 674.773Z" fill="#151515"/>
<path d="M1008.64 679.149C1008.37 682.185 1008.11 712.904 1008.11 747.462C1008.11 802.024 1007.93 810.418 1006.77 811.578C1006.05 812.293 1005.43 813.275 1005.43 813.722C1005.43 815.061 1003.02 815.686 997.569 815.686C992.747 815.686 992.211 815.418 987.389 811.31C980.066 804.97 973.815 802.291 966.85 802.291C954.973 802.291 943.99 809.614 937.828 821.758C935.863 825.688 935.417 827.563 935.506 833.456C935.506 842.297 938.453 848.727 945.508 855.603C953.366 863.282 965.153 866.229 975.066 863.104C978.548 861.943 983.549 859.264 984.888 857.656C985.156 857.389 987.032 855.87 988.996 854.263C992.211 851.763 993.461 851.406 997.926 851.406C1002.3 851.406 1003.46 851.763 1005.61 853.817L1008.11 856.228V922.755C1008.11 959.367 1008.37 990.265 1008.64 991.425L1009.18 993.39H1328.69L1328.87 838.636C1329.04 753.624 1329.04 681.649 1328.87 678.792L1328.6 673.702H1200.9L1202.33 676.113C1203.13 677.541 1204.74 679.952 1205.9 681.56C1208.31 684.864 1211.71 698.169 1211.71 704.242C1211.71 718.083 1202.96 733.264 1190.99 740.318C1183.93 744.426 1177.33 746.033 1167.95 746.033C1149.2 745.944 1132.59 733.621 1127.77 716.118C1125.89 709.51 1126.16 694.865 1128.12 688.972C1129.91 683.792 1134.73 675.488 1135.89 675.488C1136.34 675.488 1136.7 675.041 1136.7 674.595C1136.7 673.969 1116.16 673.702 1076.87 673.702C1037.57 673.702 1017.04 673.969 1017.04 674.595C1017.04 675.041 1016.05 675.488 1014.8 675.488C1013.55 675.488 1012.57 675.041 1012.57 674.595C1012.57 674.059 1011.86 673.702 1010.87 673.702C1009.53 673.702 1009.18 674.684 1008.64 679.149Z" fill="#151515"/>
</g>
<defs>
<filter id="filter0_d_96_6" x="0" y="0" width="1345" height="1013.39" filterUnits="userSpaceOnUse" color-interpolation-filters="sRGB">
<feFlood flood-opacity="0" result="BackgroundImageFix"/>
<feColorMatrix in="SourceAlpha" type="matrix" values="0 0 0 0 0 0 0 0 0 0 0 0 0 0 0 0 0 0 127 0" result="hardAlpha"/>
<feMorphology radius="4" operator="dilate" in="SourceAlpha" result="effect1_dropShadow_96_6"/>
<feOffset dy="4"/>
<feGaussianBlur stdDeviation="6"/>
<feComposite in2="hardAlpha" operator="out"/>
<feColorMatrix type="matrix" values="0 0 0 0 0 0 0 0 0 0 0 0 0 0 0 0 0 0 0.25 0"/>
<feBlend mode="normal" in2="BackgroundImageFix" result="effect1_dropShadow_96_6"/>
<feBlend mode="normal" in="SourceGraphic" in2="effect1_dropShadow_96_6" result="shape"/>
</filter>
</defs>
</svg>
